HIERARCHY
ROOT Hips
{
	OFFSET -0.001795 -0.223333 0.028219
	CHANNELS 6 Xposition Yposition Zposition Zrotation Yrotation Xrotation 
	JOINT LeftUpLeg
	{
		OFFSET 0.069520 -0.091406 -0.006815
		CHANNELS 3 Zrotation Yrotation Xrotation
		JOINT LeftLeg
		{
			OFFSET 0.034277 -0.375199 -0.004496
			CHANNELS 3 Zrotation Yrotation Xrotation
			JOINT LeftFoot
			{
				OFFSET -0.013596 -0.397961 -0.043693
				CHANNELS 3 Zrotation Yrotation Xrotation
				JOINT LeftToe
				{
					OFFSET 0.026358 -0.055791 0.119288
					CHANNELS 3 Zrotation Yrotation Xrotation
					End Site
					{
						OFFSET 0.000000 0.000000 0.000000
					}
				}
			}
		}
	}
	JOINT RightUpLeg
	{
		OFFSET -0.067670 -0.090522 -0.004320
		CHANNELS 3 Zrotation Yrotation Xrotation
		JOINT RightLeg
		{
			OFFSET -0.038290 -0.382569 -0.008850
			CHANNELS 3 Zrotation Yrotation Xrotation
			JOINT RightFoot
			{
				OFFSET 0.015774 -0.398415 -0.042312
				CHANNELS 3 Zrotation Yrotation Xrotation
				JOINT RightToe
				{
					OFFSET -0.025372 -0.048144 0.123348
					CHANNELS 3 Zrotation Yrotation Xrotation
					End Site
					{
						OFFSET 0.000000 0.000000 0.000000
					}
				}
			}
		}
	}
	JOINT Spine
	{
		OFFSET -0.002533 0.108963 -0.026696
		CHANNELS 3 Zrotation Yrotation Xrotation
		JOINT Spine1
		{
			OFFSET 0.005487 0.135180 0.001092
			CHANNELS 3 Zrotation Yrotation Xrotation
			JOINT Spine2
			{
				OFFSET 0.001457 0.052922 0.025425
				CHANNELS 3 Zrotation Yrotation Xrotation
				JOINT Neck
				{
					OFFSET -0.002778 0.213870 -0.042857
					CHANNELS 3 Zrotation Yrotation Xrotation
					JOINT Head
					{
						OFFSET 0.005152 0.064970 0.051349
						CHANNELS 3 Zrotation Yrotation Xrotation
						End Site
						{
							OFFSET 0.000000 0.000000 0.000000
						}
					}
				}
				JOINT LeftShoulder
				{
					OFFSET 0.078845 0.121749 -0.034090
					CHANNELS 3 Zrotation Yrotation Xrotation
					JOINT LeftArm
					{
						OFFSET 0.090977 0.030469 -0.008868
						CHANNELS 3 Zrotation Yrotation Xrotation
						JOINT LeftForeArm
						{
							OFFSET 0.259612 -0.012772 -0.027456
							CHANNELS 3 Zrotation Yrotation Xrotation
							JOINT LeftHand
							{
								OFFSET 0.249234 0.008986 -0.001171
								CHANNELS 3 Zrotation Yrotation Xrotation
								End Site
								{
									OFFSET 0.000000 0.000000 0.000000
								}
							}
						}
					}
				}
				JOINT RightShoulder
				{
					OFFSET -0.081759 0.118833 -0.038615
					CHANNELS 3 Zrotation Yrotation Xrotation
					JOINT RightArm
					{
						OFFSET -0.096012 0.032551 -0.009143
						CHANNELS 3 Zrotation Yrotation Xrotation
						JOINT RightForeArm
						{
							OFFSET -0.253742 -0.013329 -0.021401
							CHANNELS 3 Zrotation Yrotation Xrotation
							JOINT RightHand
							{
								OFFSET -0.255298 0.007772 -0.005559
								CHANNELS 3 Zrotation Yrotation Xrotation
								End Site
								{
									OFFSET 0.000000 0.000000 0.000000
								}
							}
						}
					}
				}
			}
		}
	}
}
MOTION
Frames: 14
Frame Time: 0.050000
0.000000 0.896238 0.000000 -1.933372 -13.537166 15.738297 5.946129 1.509571 -53.003888 -1.955770 2.806568 58.477090 4.222477 9.139265 2.401861 0.000000 0.000000 0.000000 -0.871468 6.019366 -41.799405 4.802795 1.429937 39.522636 -4.288717 -8.389038 -7.194471 0.000000 0.000000 0.000000 3.475363 -1.000751 43.343624 -6.218365 1.677001 -27.582475 -1.660266 6.420988 29.441692 10.450334 -4.128693 -27.595480 0.000000 0.000000 0.000000 -20.124922 -4.663369 1.731798 -41.376823 -18.762631 -1.472707 32.342775 -52.149493 -11.965325 0.000000 0.000000 0.000000 21.816718 -4.048178 -3.608820 40.052735 16.999913 -1.154219 -29.132690 62.265880 -13.222913 0.000000 0.000000 0.000000 
-0.002216 0.886793 0.016418 -2.756065 -13.830556 17.098680 4.071826 0.939708 -55.720185 1.026752 0.288375 53.795090 3.202563 6.624561 0.303089 0.000000 0.000000 0.000000 -0.622039 6.469422 -43.205891 5.102230 1.507081 41.552863 -4.135970 -6.869291 -9.072963 0.000000 0.000000 0.000000 2.894693 -0.589701 45.716939 -2.462472 0.941889 -26.846349 -3.993628 9.852923 27.929301 11.169955 -2.883577 -32.945580 0.000000 0.000000 0.000000 -20.731228 -5.882829 1.248168 -42.230960 -19.128745 -0.867075 32.391567 -50.445659 -12.299582 0.000000 0.000000 0.000000 23.848744 -6.014211 -4.061803 41.540036 17.137492 -1.153947 -25.699058 61.398518 -9.922441 0.000000 0.000000 0.000000 
-0.002826 0.871005 0.034194 -2.696023 -14.241224 16.011202 3.543544 0.952821 -57.904825 1.215535 0.150556 55.736523 1.444756 2.337562 -1.773344 0.000000 0.000000 0.000000 -0.347694 6.587851 -43.050851 6.172864 1.468302 46.238916 -5.287450 -7.531124 -14.728744 0.000000 0.000000 0.000000 3.011020 -0.419763 48.838186 -5.407019 1.476378 -27.210769 -2.519189 8.164821 28.999739 11.844570 -3.898891 -31.087246 0.000000 0.000000 0.000000 -22.338881 -7.297235 2.574462 -42.994970 -20.374543 -0.683394 34.245350 -49.113055 -12.311405 0.000000 0.000000 0.000000 26.061700 -4.586479 -3.737723 42.275702 16.166259 -1.553427 -29.224787 59.918795 -11.777797 0.000000 0.000000 0.000000 
-0.002334 0.860329 0.052342 -3.930675 -15.214978 17.456223 3.291594 1.343160 -59.072151 3.356235 -1.131394 57.199844 0.315816 0.935936 0.931758 0.000000 0.000000 0.000000 -0.502646 7.480641 -46.261995 7.193835 1.440430 50.997124 -5.270459 -8.568102 -13.630555 0.000000 0.000000 0.000000 2.936925 -0.032344 50.590766 -5.642985 1.494018 -27.486078 -2.730171 8.427611 29.714723 11.150718 -2.944755 -34.385918 0.000000 0.000000 0.000000 -22.965456 -8.217738 3.163039 -43.166503 -21.177061 -0.451665 35.087793 -47.756042 -12.223393 0.000000 0.000000 0.000000 24.776320 -5.685526 -4.342748 44.185648 17.136991 -1.203475 -25.818175 58.453386 -9.395928 0.000000 0.000000 0.000000 
-0.000823 0.851474 0.070549 -3.817192 -15.355923 17.957312 2.555012 1.051118 -59.735570 2.836730 -0.754420 58.846827 2.033516 3.706687 -1.406555 0.000000 0.000000 0.000000 -0.827910 7.608609 -47.165717 7.478413 1.466967 53.327954 -5.780487 -9.638008 -15.674549 0.000000 0.000000 0.000000 2.958769 0.019093 51.086321 -6.818933 1.712706 -26.809699 -2.354113 7.489322 29.148997 10.844735 -2.831832 -34.714732 0.000000 0.000000 0.000000 -22.958823 -8.725421 3.753677 -44.402720 -22.412263 0.071141 37.307639 -46.906867 -12.696016 0.000000 0.000000 0.000000 24.461174 -5.645168 -4.613998 45.695125 16.876341 -1.067450 -24.787778 56.748653 -8.688331 0.000000 0.000000 0.000000 
0.000765 0.850678 0.088448 -3.967800 -15.225136 18.896972 2.324082 0.786658 -58.746549 2.264603 -0.275225 58.870378 2.797919 4.335232 -4.810485 0.000000 0.000000 0.000000 -1.421076 7.652461 -48.459352 7.333169 1.577835 55.006862 -5.542920 -8.766862 -15.749204 0.000000 0.000000 0.000000 3.133869 -0.096096 51.499935 -6.873765 1.687275 -27.977544 -2.660932 7.167217 29.331929 12.163297 -3.549268 -34.267209 0.000000 0.000000 0.000000 -22.985283 -8.998610 4.032620 -43.930650 -22.062853 -0.134651 37.893346 -47.389004 -13.045828 0.000000 0.000000 0.000000 24.335601 -5.821157 -4.813397 45.243775 15.322016 -1.603359 -21.775441 58.734900 -7.565364 0.000000 0.000000 0.000000 
0.002245 0.855354 0.105591 -4.083151 -15.478807 19.614870 2.777220 0.974658 -56.784617 1.637139 0.377374 57.221394 3.429106 5.344380 -6.500505 0.000000 0.000000 0.000000 -1.531980 7.701408 -48.590599 6.834000 1.954251 54.918695 -5.569455 -9.398427 -14.937696 0.000000 0.000000 0.000000 2.837937 0.103887 51.034041 -7.102053 1.704830 -28.245929 -2.825902 7.063940 28.566059 12.390094 -3.732399 -33.770899 0.000000 0.000000 0.000000 -22.681069 -8.732851 3.911126 -43.134420 -21.496003 -0.317719 37.256063 -49.310535 -13.418353 0.000000 0.000000 0.000000 24.545990 -5.941137 -5.038459 43.222370 15.010830 -1.653216 -17.158850 60.186470 -5.439532 0.000000 0.000000 0.000000 
0.003420 0.861217 0.121846 -4.307812 -15.063092 20.303876 2.540892 0.581491 -55.021274 2.072750 0.081159 56.131351 3.441615 4.804517 -8.568295 0.000000 0.000000 0.000000 -1.677299 7.517148 -48.420583 6.934233 1.757340 54.572079 -5.689194 -10.372088 -14.284140 0.000000 0.000000 0.000000 3.081925 -0.219456 49.820377 -7.453737 1.751665 -28.435928 -2.748119 6.867944 27.938247 12.610541 -3.888632 -33.442918 0.000000 0.000000 0.000000 -21.439556 -8.385523 3.709791 -42.648003 -21.626891 -0.249052 38.877057 -49.547053 -14.271880 0.000000 0.000000 0.000000 24.422620 -6.157304 -5.271388 39.893581 14.365167 -1.777130 -16.986972 61.920163 -5.902503 0.000000 0.000000 0.000000 
0.003894 0.866613 0.137002 -4.588204 -14.881922 20.530915 2.941643 0.617711 -53.426986 1.765241 0.336644 54.923839 3.498080 4.784740 -9.255800 0.000000 0.000000 0.000000 -1.812251 7.198850 -47.346927 6.760525 1.757696 53.285328 -5.404392 -9.581299 -13.457282 0.000000 0.000000 0.000000 2.668587 -0.109904 48.622505 -6.605471 1.606557 -28.694434 -2.913173 7.409199 27.504462 12.982200 -3.956477 -33.584635 0.000000 0.000000 0.000000 -20.130536 -8.641901 3.678078 -40.438339 -22.348197 -0.082524 40.965526 -49.618398 -15.516981 0.000000 0.000000 0.000000 24.441527 -5.902714 -4.977251 35.584926 15.682813 -1.461476 -21.706589 63.077722 -9.040414 0.000000 0.000000 0.000000 
0.003829 0.869704 0.150895 -4.897067 -14.385456 20.480721 2.694613 0.245230 -51.773956 2.450646 -0.140313 54.507627 3.486346 4.644077 -9.704577 0.000000 0.000000 0.000000 -1.656261 7.012317 -46.663013 6.797797 1.643624 53.171451 -5.363164 -9.663287 -13.045859 0.000000 0.000000 0.000000 2.887961 -0.388387 47.697703 -6.973077 1.673350 -28.825087 -2.517893 7.311278 26.919514 13.538862 -4.228685 -33.416191 0.000000 0.000000 0.000000 -17.864246 -9.230236 3.949228 -38.192727 -23.898793 0.290569 43.201527 -48.914972 -16.450372 0.000000 0.000000 0.000000 23.424123 -5.238768 -4.418252 32.481789 17.978279 -0.956769 -29.114353 61.703714 -13.291335 0.000000 0.000000 0.000000 
0.003274 0.870111 0.163989 -4.962958 -13.530164 20.197163 2.416455 -0.173010 -50.688894 2.759541 -0.481341 54.556291 3.649269 4.960322 -10.009958 0.000000 0.000000 0.000000 -1.695760 6.741963 -46.188889 6.261172 1.762862 52.984774 -5.045364 -8.449604 -12.971358 0.000000 0.000000 0.000000 2.876350 -0.623514 46.538639 -6.763061 1.654756 -28.817636 -2.115046 7.173072 26.781504 13.439459 -4.235860 -33.142764 0.000000 0.000000 0.000000 -15.603593 -10.324935 4.452144 -35.531188 -26.040543 0.686907 44.165674 -47.096364 -16.344265 0.000000 0.000000 0.000000 23.071932 -4.910537 -4.138598 29.711883 20.706951 -0.530542 -35.954797 60.065738 -16.846048 0.000000 0.000000 0.000000 
0.002545 0.867245 0.176716 -5.274141 -13.192938 20.283618 2.182494 -0.366039 -50.303722 3.156560 -0.768280 55.507156 3.820430 4.925771 -11.460347 0.000000 0.000000 0.000000 -1.479524 6.801153 -46.350169 5.998656 1.974849 54.356722 -5.039169 -8.310417 -13.268544 0.000000 0.000000 0.000000 2.726219 -0.636321 45.930741 -6.258068 1.576532 -29.010288 -1.978538 7.740800 26.251861 13.882186 -4.128617 -34.126896 0.000000 0.000000 0.000000 -14.510211 -11.251251 4.729610 -33.046979 -27.249680 0.814944 42.503727 -45.077920 -15.073704 0.000000 0.000000 0.000000 22.492389 -4.133704 -3.394625 28.328199 22.959255 -0.198571 -37.364259 57.332866 -16.536244 0.000000 0.000000 0.000000 
0.001688 0.863137 0.189379 -5.495821 -12.879973 20.382895 1.872406 -0.587496 -49.967545 3.522659 -1.050308 56.659351 4.111105 5.419494 -12.288304 0.000000 0.000000 0.000000 -1.718927 6.757784 -46.785733 6.421085 1.738318 55.893687 -5.054291 -8.605655 -13.095339 0.000000 0.000000 0.000000 2.998726 -0.862448 45.157331 -6.129935 1.560682 -29.124486 -1.737340 8.217207 26.259229 14.474905 -4.257629 -34.475847 0.000000 0.000000 0.000000 -13.932503 -12.674794 5.327790 -31.087147 -27.963649 0.791932 40.976486 -43.792130 -14.134831 0.000000 0.000000 0.000000 22.294572 -3.508549 -2.823872 28.173257 24.730997 0.075096 -36.034108 55.537348 -15.025822 0.000000 0.000000 0.000000 
0.000835 0.859316 0.201971 -5.935323 -12.565941 20.895904 1.517359 -0.791678 -49.849460 3.941869 -1.388719 57.315534 4.511662 6.268864 -13.096014 0.000000 0.000000 0.000000 -1.578108 6.897623 -47.407318 6.621308 1.643595 57.426457 -4.988941 -8.597197 -12.849321 0.000000 0.000000 0.000000 3.013303 -0.953892 44.128305 -5.619850 1.488903 -29.038429 -1.482697 8.676523 26.115891 14.652621 -4.009461 -35.761453 0.000000 0.000000 0.000000 -13.699615 -12.965059 5.364875 -31.211907 -28.242888 0.914601 38.697379 -44.512419 -13.508374 0.000000 0.000000 0.000000 22.256864 -2.440434 -2.037179 28.814239 25.900369 0.378242 -32.373304 53.960782 -12.546257 0.000000 0.000000 0.000000 
